<?xml version="1.0" encoding="UTF-8" standalone="no"?>
<!-- Created with Serif DrawPlus 11, 0, 3, 23 (Feb 25, 14:12:55) (http://www.serif.com) -->

<svg
   xmlns:dc="http://purl.org/dc/elements/1.1/"
   xmlns:cc="http://creativecommons.org/ns#"
   xmlns:rdf="http://www.w3.org/1999/02/22-rdf-syntax-ns#"
   xmlns:svg="http://www.w3.org/2000/svg"
   xmlns="http://www.w3.org/2000/svg"
   xmlns:sodipodi="http://sodipodi.sourceforge.net/DTD/sodipodi-0.dtd"
   xmlns:inkscape="http://www.inkscape.org/namespaces/inkscape"
   version="1.1"
   width="280.80371"
   height="302.69531"
   id="svg3038"
   inkscape:version="0.91 r13725"
   sodipodi:docname="Wiki_slope_in_2d.svg">
  <metadata
     id="metadata3089">
    <rdf:RDF>
      <cc:Work
         rdf:about="">
        <dc:format>image/svg+xml</dc:format>
        <dc:type
           rdf:resource="http://purl.org/dc/dcmitype/StillImage" />
        <dc:title></dc:title>
      </cc:Work>
    </rdf:RDF>
  </metadata>
  <defs
     id="defs3087">
    <marker
       inkscape:stockid="Arrow1Lend"
       orient="auto"
       refY="0"
       refX="0"
       id="Arrow1Lend"
       style="overflow:visible"
       inkscape:isstock="true">
      <path
         id="path4232"
         d="M 0,0 5,-5 -12.5,0 5,5 0,0 Z"
         style="fill:#000000;fill-opacity:1;fill-rule:evenodd;stroke:#000000;stroke-width:1pt;stroke-opacity:1"
         transform="matrix(-0.8,0,0,-0.8,-10,0)"
         inkscape:connector-curvature="0" />
    </marker>
    <marker
       inkscape:stockid="Arrow1Lstart"
       orient="auto"
       refY="0"
       refX="0"
       id="Arrow1Lstart"
       style="overflow:visible"
       inkscape:isstock="true">
      <path
         id="path4229"
         d="M 0,0 5,-5 -12.5,0 5,5 0,0 Z"
         style="fill:#000000;fill-opacity:1;fill-rule:evenodd;stroke:#000000;stroke-width:1pt;stroke-opacity:1"
         transform="matrix(0.8,0,0,0.8,10,0)"
         inkscape:connector-curvature="0" />
    </marker>
    <marker
       inkscape:stockid="Arrow1Mstart"
       orient="auto"
       refY="0"
       refX="0"
       id="Arrow1Mstart"
       style="overflow:visible"
       inkscape:isstock="true">
      <path
         id="path4235"
         d="M 0,0 5,-5 -12.5,0 5,5 0,0 Z"
         style="fill:#000000;fill-opacity:1;fill-rule:evenodd;stroke:#000000;stroke-width:1pt;stroke-opacity:1"
         transform="matrix(0.4,0,0,0.4,4,0)"
         inkscape:connector-curvature="0" />
    </marker>
  </defs>
  <sodipodi:namedview
     pagecolor="#ffffff"
     bordercolor="#666666"
     borderopacity="1"
     objecttolerance="10"
     gridtolerance="10"
     guidetolerance="10"
     inkscape:pageopacity="0"
     inkscape:pageshadow="2"
     inkscape:window-width="1789"
     inkscape:window-height="1035"
     id="namedview3085"
     showgrid="false"
     inkscape:zoom="0.95291552"
     inkscape:cx="53.057743"
     inkscape:cy="149.62423"
     inkscape:window-x="26"
     inkscape:window-y="26"
     inkscape:window-maximized="0"
     inkscape:current-layer="svg3038"
     fit-margin-left="4"
     fit-margin-bottom="4"
     fit-margin-top="4"
     fit-margin-right="4" />
  <g
     inkscape:groupmode="layer"
     id="layer1"
     inkscape:label="Layer"
     transform="translate(4,5.9590965)">
    <path
       transform="translate(-128.623,-445.204)"
       d="m 208.29699,714.90975 c 0,-13.074 -7.697,-24.923 -19.645,-30.239 l -13.463,30.239 z"
       id="path3091"
       inkscape:connector-curvature="0"
       style="fill:none;stroke:#026602;stroke-width:0.66666698" />
  </g>
  <path
     style="fill:none;stroke:#000000;stroke-width:1.33299994;stroke-miterlimit:4;stroke-dasharray:none;marker-start:url(#Arrow1Lstart)"
     inkscape:connector-curvature="0"
     d="m 24.777,6.4260965 0,292.0000035"
     id="dp_path002" />
  <path
     style="fill:none;stroke:#000000;stroke-width:1.33333004;marker-end:url(#Arrow1Lend)"
     inkscape:connector-curvature="0"
     d="m 4,275.4741 270.377,0"
     id="dp_path003" />
  <path
     style="fill:none;stroke:#006667;stroke-width:1.33333004"
     inkscape:connector-curvature="0"
     d="m 160.45,165.8591 0,-135.937003"
     id="dp_path008" />
  <path
     style="fill:none;stroke:#026602;stroke-width:0.66666698"
     inkscape:connector-curvature="0"
     d="m 132.649,165.8421 c 0,-13.074 -7.697,-24.923 -19.645,-30.239 l -13.463,30.239 z"
     id="dp_path009" />
  <path
     style="fill:#000000;fill-rule:evenodd"
     inkscape:connector-curvature="0"
     d="m 107.104,32.603097 c -0.003,-0.103 -0.039,-0.167 -0.106,-0.189 -0.065,-0.023 -0.14,-0.031 -0.218,-0.028 -0.123,-0.006 -0.208,0.013 -0.252,0.054 -0.044,0.043 -0.091,0.148 -0.138,0.314 -0.306,0.929 -0.696,1.612 -1.166,2.052 -0.472,0.441 -0.943,0.66 -1.414,0.656 -0.23,0.013 -0.456,-0.078 -0.67,-0.272 -0.216,-0.194 -0.332,-0.564 -0.348,-1.115 0.006,-0.272 0.054,-0.609 0.14,-1.013 0.089,-0.402 0.178,-0.794 0.273,-1.174 l 0.737,-2.965 c 0.148,-0.589 0.376,-1.116 0.684,-1.58 0.31,-0.465 0.716,-0.709 1.223,-0.737 0.047,-0.006 0.169,0.008 0.369,0.038 0.203,0.032 0.396,0.12 0.583,0.264 -0.415,0.14 -0.667,0.34 -0.757,0.603 -0.09,0.261 -0.126,0.408 -0.108,0.439 -0.004,0.15 0.052,0.302 0.168,0.45 0.114,0.15 0.312,0.231 0.589,0.242 0.215,0.005 0.44,-0.082 0.676,-0.258 0.236,-0.176 0.364,-0.473 0.384,-0.889 -0.011,-0.364 -0.128,-0.644 -0.348,-0.84 -0.221,-0.197 -0.477,-0.333 -0.768,-0.408 -0.291,-0.076 -0.547,-0.109 -0.767,-0.107 -0.397,0.01 -0.742,0.107 -1.032,0.287 -0.29,0.183 -0.529,0.387 -0.71,0.613 -0.183,0.228 -0.311,0.415 -0.383,0.563 -0.261,-0.628 -0.6,-1.033 -1.016,-1.217 -0.415,-0.184 -0.771,-0.264 -1.064,-0.246 -0.543,0.014 -1.023,0.163 -1.437,0.45 -0.415,0.286 -0.763,0.628 -1.046,1.025 -0.281,0.399 -0.494,0.772 -0.638,1.12 -0.144,0.348 -0.216,0.592 -0.216,0.728 0.006,0.105 0.046,0.168 0.121,0.189 0.075,0.024 0.141,0.034 0.203,0.028 0.132,0.007 0.218,-0.01 0.26,-0.054 0.04,-0.042 0.082,-0.146 0.129,-0.314 0.309,-0.926 0.704,-1.61 1.183,-2.05 0.482,-0.442 0.946,-0.659 1.397,-0.656 0.317,0.004 0.571,0.122 0.756,0.358 0.185,0.235 0.281,0.571 0.285,1.007 -0.008,0.276 -0.058,0.639 -0.156,1.085 -0.094,0.447 -0.196,0.878 -0.3,1.296 l -0.498,1.97 c -0.112,0.481 -0.248,0.962 -0.411,1.44 -0.163,0.477 -0.379,0.876 -0.645,1.198 -0.27,0.322 -0.619,0.49 -1.048,0.502 -0.044,0.005 -0.166,-0.007 -0.362,-0.038 -0.197,-0.033 -0.393,-0.121 -0.59,-0.266 0.32,-0.098 0.541,-0.254 0.665,-0.463 0.125,-0.211 0.184,-0.401 0.179,-0.576 -0.012,-0.276 -0.102,-0.461 -0.263,-0.557 -0.161,-0.098 -0.32,-0.143 -0.472,-0.135 -0.281,0.003 -0.531,0.108 -0.745,0.315 -0.212,0.208 -0.327,0.492 -0.338,0.853 0.016,0.425 0.21,0.753 0.579,0.983 0.369,0.23 0.812,0.348 1.325,0.349 0.522,-0.02 0.959,-0.183 1.315,-0.487 0.355,-0.305 0.625,-0.629 0.811,-0.976 0.24,0.599 0.566,0.998 0.981,1.192 0.413,0.198 0.773,0.287 1.077,0.271 0.56,-0.012 1.047,-0.165 1.464,-0.457 0.419,-0.294 0.766,-0.639 1.043,-1.043 0.277,-0.403 0.485,-0.775 0.624,-1.121 0.139,-0.347 0.207,-0.58 0.207,-0.703 z"
     id="dp_path010" />
  <path
     style="fill:#000000;fill-rule:evenodd"
     inkscape:connector-curvature="0"
     d="m 134.51,35.758097 2.12,-8.523 c 0.014,-0.067 0.027,-0.124 0.042,-0.176 0.014,-0.053 0.024,-0.095 0.024,-0.127 0.001,-0.128 -0.046,-0.25 -0.142,-0.369 -0.094,-0.117 -0.25,-0.18 -0.464,-0.189 -0.316,0.021 -0.532,0.133 -0.649,0.333 -0.116,0.2 -0.18,0.353 -0.195,0.464 l -1.58,6.364 c -0.052,0.221 -0.178,0.481 -0.376,0.779 -0.2,0.297 -0.464,0.56 -0.788,0.788 -0.325,0.226 -0.7,0.348 -1.126,0.36 -0.474,-0.026 -0.788,-0.215 -0.947,-0.566 -0.159,-0.352 -0.231,-0.72 -0.22,-1.102 0.02,-0.683 0.16,-1.455 0.425,-2.312 0.263,-0.86 0.542,-1.671 0.828,-2.43 0.086,-0.221 0.155,-0.421 0.206,-0.6 0.048,-0.178 0.073,-0.368 0.073,-0.568 -0.009,-0.546 -0.165,-0.972 -0.471,-1.278 -0.304,-0.304 -0.693,-0.462 -1.168,-0.466 -0.501,0.018 -0.926,0.183 -1.278,0.502 -0.354,0.317 -0.638,0.689 -0.856,1.113 -0.22,0.423 -0.379,0.801 -0.48,1.135 -0.1,0.334 -0.151,0.525 -0.15,0.573 0.006,0.105 0.047,0.168 0.122,0.192 0.073,0.021 0.142,0.031 0.204,0.027 0.133,0.004 0.221,-0.016 0.266,-0.06 0.044,-0.044 0.084,-0.14 0.123,-0.288 0.055,-0.243 0.161,-0.579 0.319,-1.004 0.157,-0.426 0.373,-0.814 0.649,-1.166 0.277,-0.35 0.624,-0.536 1.039,-0.558 0.121,-0.008 0.232,0.025 0.328,0.102 0.093,0.078 0.144,0.255 0.149,0.527 -0.004,0.255 -0.052,0.539 -0.148,0.851 -0.096,0.314 -0.22,0.678 -0.373,1.097 -0.292,0.769 -0.548,1.524 -0.77,2.268 -0.222,0.743 -0.34,1.4 -0.35,1.976 0.028,0.928 0.284,1.58 0.77,1.956 0.484,0.376 1.035,0.559 1.646,0.544 0.497,-0.015 0.91,-0.112 1.238,-0.291 0.328,-0.176 0.564,-0.344 0.706,-0.498 -0.282,1.178 -0.626,2.098 -1.032,2.758 -0.407,0.662 -0.827,1.123 -1.262,1.386 -0.436,0.264 -0.836,0.389 -1.206,0.381 -0.34,-0.011 -0.61,-0.084 -0.806,-0.219 -0.194,-0.137 -0.333,-0.277 -0.414,-0.425 -0.08,-0.148 -0.119,-0.245 -0.116,-0.291 -0.003,-10e-4 0.008,-0.009 0.029,-0.025 0.021,-0.013 0.071,-0.028 0.144,-0.039 0.331,-0.07 0.571,-0.213 0.715,-0.433 0.144,-0.219 0.216,-0.421 0.212,-0.609 -0.006,-0.23 -0.079,-0.403 -0.22,-0.519 -0.143,-0.117 -0.312,-0.176 -0.512,-0.177 -0.16,-0.015 -0.376,0.06 -0.647,0.225 -0.272,0.164 -0.424,0.541 -0.453,1.127 0.012,0.568 0.208,1.018 0.59,1.346 0.38,0.328 0.874,0.498 1.48,0.504 0.758,-0.014 1.462,-0.233 2.115,-0.654 0.652,-0.423 1.209,-0.963 1.671,-1.623 0.461,-0.663 0.786,-1.356 0.973,-2.083 z"
     id="dp_path011" />
  <path
     style="fill:#000000;fill-rule:evenodd"
     inkscape:connector-curvature="0"
     d="m 148.793,30.286097 c 0.016,-0.867 -0.073,-1.896 -0.267,-3.091 -0.194,-1.193 -0.58,-2.413 -1.161,-3.659 -0.447,-0.888 -0.916,-1.634 -1.404,-2.236 -0.491,-0.604 -0.92,-1.06 -1.289,-1.366 -0.37,-0.308 -0.596,-0.464 -0.682,-0.464 -0.066,0 -0.118,0.02 -0.156,0.06 -0.04,0.037 -0.06,0.09 -0.06,0.157 -0.009,0.023 0.007,0.067 0.051,0.125 0.043,0.06 0.161,0.184 0.36,0.372 1.068,1.075 1.892,2.462 2.472,4.158 0.58,1.698 0.875,3.68 0.881,5.944 0.022,1.874 -0.222,3.701 -0.734,5.481 -0.515,1.779 -1.431,3.364 -2.748,4.751 -0.136,0.125 -0.219,0.21 -0.247,0.257 -0.029,0.047 -0.043,0.083 -0.035,0.109 0,0.067 0.02,0.12 0.06,0.158 0.038,0.04 0.09,0.06 0.156,0.06 0.087,0 0.322,-0.163 0.703,-0.484 0.383,-0.32 0.824,-0.794 1.325,-1.42 0.5,-0.626 0.971,-1.398 1.412,-2.314 0.539,-1.202 0.906,-2.372 1.096,-3.51 0.192,-1.138 0.28,-2.167 0.267,-3.088 z"
     id="dp_path012" />
  <path
     style="fill:#000000;fill-rule:evenodd"
     inkscape:connector-curvature="0"
     d="m 96.709,40.884097 c 0.009,-0.024 -0.007,-0.066 -0.045,-0.124 -0.038,-0.057 -0.146,-0.174 -0.323,-0.352 -0.892,-0.92 -1.587,-1.953 -2.081,-3.098 -0.495,-1.147 -0.84,-2.324 -1.034,-3.534 -0.194,-1.209 -0.289,-2.374 -0.281,-3.49 -0.02,-1.904 0.227,-3.743 0.744,-5.514 0.517,-1.772 1.431,-3.344 2.739,-4.717 0.136,-0.127 0.218,-0.212 0.248,-0.259 0.028,-0.046 0.041,-0.082 0.033,-0.109 0,-0.076 -0.02,-0.132 -0.059,-0.167 -0.038,-0.033 -0.09,-0.052 -0.157,-0.05 -0.087,0 -0.321,0.162 -0.703,0.484 -0.382,0.32 -0.824,0.793 -1.325,1.42 -0.5,0.625 -0.971,1.397 -1.412,2.313 -0.539,1.203 -0.905,2.373 -1.096,3.511 -0.191,1.137 -0.28,2.166 -0.267,3.088 -0.016,0.866 0.074,1.897 0.267,3.09 0.195,1.194 0.58,2.414 1.161,3.66 0.447,0.887 0.916,1.634 1.404,2.235 0.491,0.604 0.92,1.06 1.29,1.367 0.369,0.308 0.596,0.464 0.681,0.464 0.067,10e-4 0.119,-0.016 0.157,-0.051 0.039,-0.035 0.059,-0.091 0.059,-0.167 z"
     id="dp_path013" />
  <path
     style="fill:#000000;fill-rule:evenodd"
     inkscape:connector-curvature="0"
     d="m 115.614,35.280097 -0.358,0 c -0.035,0.231 -0.079,0.474 -0.131,0.728 -0.052,0.254 -0.113,0.443 -0.185,0.564 -0.043,0.039 -0.152,0.066 -0.33,0.082 -0.176,0.017 -0.365,0.026 -0.565,0.03 -0.201,0.003 -0.36,0.004 -0.475,0.004 l -2.598,0 1.529,-1.493 c 0.748,-0.651 1.351,-1.201 1.808,-1.652 0.459,-0.452 0.792,-0.873 1,-1.265 0.208,-0.392 0.309,-0.822 0.305,-1.292 -0.016,-0.835 -0.305,-1.506 -0.865,-2.011 -0.561,-0.507 -1.292,-0.767 -2.191,-0.78 -0.546,0.009 -1.021,0.139 -1.422,0.389 -0.403,0.252 -0.715,0.576 -0.936,0.97 -0.222,0.394 -0.335,0.809 -0.336,1.245 0.008,0.264 0.07,0.452 0.186,0.568 0.118,0.113 0.238,0.184 0.359,0.209 0.121,0.024 0.195,0.035 0.217,0.028 0.138,0.007 0.292,-0.048 0.466,-0.16 0.173,-0.11 0.266,-0.312 0.282,-0.602 0,-0.195 -0.064,-0.367 -0.192,-0.515 -0.129,-0.148 -0.318,-0.227 -0.57,-0.233 -0.056,-0.002 -0.096,0 -0.12,10e-4 -0.026,0.001 -0.048,0.005 -0.068,0.013 0.174,-0.472 0.434,-0.834 0.784,-1.086 0.349,-0.254 0.737,-0.38 1.164,-0.384 0.438,0.006 0.8,0.122 1.085,0.346 0.288,0.224 0.5,0.514 0.641,0.868 0.14,0.355 0.21,0.732 0.21,1.134 -0.015,0.584 -0.168,1.15 -0.462,1.696 -0.292,0.546 -0.644,1.044 -1.052,1.496 l -2.773,3.084 c -0.076,0.069 -0.121,0.134 -0.139,0.194 -0.017,0.062 -0.022,0.174 -0.018,0.335 l 5.35,0 z"
     id="dp_path014" />
  <path
     style="fill:#000000;fill-rule:evenodd"
     inkscape:connector-curvature="0"
     d="m 142.614,35.280097 -0.358,0 c -0.035,0.231 -0.079,0.474 -0.131,0.728 -0.052,0.254 -0.113,0.443 -0.185,0.564 -0.043,0.039 -0.152,0.066 -0.33,0.082 -0.176,0.017 -0.365,0.026 -0.565,0.03 -0.201,0.003 -0.36,0.004 -0.475,0.004 l -2.598,0 1.529,-1.493 c 0.748,-0.651 1.351,-1.201 1.808,-1.652 0.459,-0.452 0.792,-0.873 1,-1.265 0.208,-0.392 0.309,-0.822 0.305,-1.292 -0.016,-0.835 -0.305,-1.506 -0.865,-2.011 -0.561,-0.507 -1.292,-0.767 -2.191,-0.78 -0.546,0.009 -1.021,0.139 -1.422,0.389 -0.403,0.252 -0.715,0.576 -0.936,0.97 -0.222,0.394 -0.335,0.809 -0.336,1.245 0.008,0.264 0.07,0.452 0.186,0.568 0.118,0.113 0.238,0.184 0.359,0.209 0.121,0.024 0.195,0.035 0.217,0.028 0.138,0.007 0.292,-0.048 0.466,-0.16 0.173,-0.11 0.266,-0.312 0.282,-0.602 0,-0.195 -0.064,-0.367 -0.192,-0.515 -0.129,-0.148 -0.318,-0.227 -0.57,-0.233 -0.056,-0.002 -0.096,0 -0.12,10e-4 -0.026,0.001 -0.048,0.005 -0.068,0.013 0.174,-0.472 0.434,-0.834 0.784,-1.086 0.349,-0.254 0.737,-0.38 1.164,-0.384 0.438,0.006 0.8,0.122 1.085,0.346 0.288,0.224 0.5,0.514 0.641,0.868 0.14,0.355 0.21,0.732 0.21,1.134 -0.015,0.584 -0.168,1.15 -0.462,1.696 -0.292,0.546 -0.644,1.044 -1.052,1.496 l -2.773,3.084 c -0.076,0.069 -0.121,0.134 -0.139,0.194 -0.017,0.062 -0.022,0.174 -0.018,0.335 l 5.35,0 z"
     id="dp_path015" />
  <path
     style="fill:#000000;fill-rule:evenodd"
     inkscape:connector-curvature="0"
     d="m 120.92,35.671097 c -0.002,-0.697 -0.124,-1.248 -0.362,-1.649 -0.238,-0.403 -0.577,-0.608 -1.012,-0.615 -0.38,0.012 -0.665,0.131 -0.858,0.36 -0.192,0.229 -0.288,0.489 -0.288,0.783 -0.002,0.293 0.092,0.553 0.281,0.782 0.188,0.228 0.476,0.348 0.865,0.36 0.163,0 0.318,-0.03 0.466,-0.089 0.145,-0.061 0.28,-0.147 0.4,-0.255 0.014,0.854 -0.114,1.615 -0.384,2.284 -0.272,0.671 -0.65,1.259 -1.131,1.767 -0.063,0.061 -0.104,0.107 -0.124,0.136 -0.02,0.028 -0.029,0.063 -0.027,0.103 0.002,0.076 0.023,0.134 0.067,0.176 0.043,0.041 0.092,0.061 0.149,0.061 0.104,-0.005 0.314,-0.184 0.622,-0.535 0.31,-0.352 0.606,-0.842 0.888,-1.472 0.278,-0.626 0.43,-1.361 0.448,-2.197 z"
     id="dp_path016" />
  <path
     style="fill:#000000;fill-rule:evenodd"
     inkscape:connector-curvature="0"
     d="m 46.354,166.7711 c -0.002,-0.103 -0.038,-0.167 -0.105,-0.189 -0.065,-0.023 -0.14,-0.031 -0.219,-0.028 -0.122,-0.006 -0.208,0.013 -0.252,0.054 -0.044,0.043 -0.09,0.148 -0.137,0.314 -0.307,0.929 -0.696,1.612 -1.167,2.052 -0.472,0.441 -0.942,0.66 -1.413,0.656 -0.231,0.013 -0.456,-0.078 -0.671,-0.272 -0.216,-0.194 -0.332,-0.564 -0.348,-1.115 0.007,-0.272 0.055,-0.609 0.14,-1.013 0.09,-0.402 0.179,-0.794 0.274,-1.174 l 0.737,-2.965 c 0.148,-0.589 0.376,-1.116 0.684,-1.58 0.309,-0.465 0.716,-0.709 1.223,-0.737 0.046,-0.006 0.169,0.008 0.369,0.038 0.203,0.032 0.396,0.12 0.583,0.264 -0.415,0.14 -0.667,0.34 -0.758,0.603 -0.089,0.261 -0.125,0.408 -0.108,0.439 -0.004,0.15 0.052,0.302 0.168,0.45 0.115,0.15 0.312,0.231 0.59,0.242 0.214,0.005 0.44,-0.082 0.676,-0.258 0.236,-0.176 0.364,-0.473 0.384,-0.889 -0.011,-0.364 -0.128,-0.644 -0.348,-0.84 -0.222,-0.197 -0.478,-0.333 -0.768,-0.408 -0.291,-0.076 -0.547,-0.109 -0.767,-0.107 -0.397,0.01 -0.743,0.107 -1.032,0.287 -0.291,0.183 -0.529,0.387 -0.711,0.613 -0.182,0.228 -0.31,0.415 -0.382,0.563 -0.262,-0.628 -0.6,-1.033 -1.016,-1.217 -0.415,-0.184 -0.771,-0.264 -1.064,-0.246 -0.543,0.014 -1.023,0.163 -1.438,0.45 -0.414,0.286 -0.762,0.628 -1.045,1.025 -0.281,0.399 -0.495,0.772 -0.639,1.12 -0.144,0.348 -0.216,0.592 -0.216,0.728 0.007,0.105 0.047,0.168 0.122,0.189 0.074,0.024 0.141,0.034 0.202,0.028 0.132,0.007 0.219,-0.01 0.26,-0.054 0.04,-0.042 0.083,-0.146 0.13,-0.314 0.309,-0.926 0.704,-1.61 1.182,-2.05 0.483,-0.442 0.947,-0.659 1.398,-0.656 0.317,0.004 0.57,0.122 0.756,0.358 0.185,0.235 0.281,0.571 0.285,1.007 -0.008,0.276 -0.059,0.639 -0.156,1.085 -0.095,0.447 -0.196,0.878 -0.3,1.296 l -0.499,1.97 c -0.112,0.481 -0.248,0.962 -0.41,1.44 -0.163,0.477 -0.379,0.876 -0.646,1.198 -0.269,0.322 -0.618,0.49 -1.048,0.502 -0.044,0.005 -0.165,-0.007 -0.361,-0.038 -0.197,-0.033 -0.393,-0.121 -0.591,-0.266 0.32,-0.098 0.542,-0.254 0.666,-0.463 0.125,-0.211 0.184,-0.401 0.178,-0.576 -0.012,-0.276 -0.101,-0.461 -0.262,-0.557 -0.162,-0.098 -0.32,-0.143 -0.472,-0.135 -0.282,0.003 -0.531,0.108 -0.746,0.315 -0.212,0.208 -0.326,0.492 -0.337,0.853 0.016,0.425 0.209,0.753 0.579,0.983 0.369,0.23 0.812,0.348 1.325,0.349 0.521,-0.02 0.959,-0.183 1.315,-0.487 0.354,-0.305 0.625,-0.629 0.81,-0.976 0.24,0.599 0.567,0.998 0.982,1.192 0.413,0.198 0.773,0.287 1.077,0.271 0.56,-0.012 1.047,-0.165 1.464,-0.457 0.419,-0.294 0.765,-0.639 1.043,-1.043 0.277,-0.403 0.485,-0.775 0.624,-1.121 0.138,-0.347 0.206,-0.58 0.206,-0.703 z"
     id="dp_path017" />
  <path
     style="fill:#000000;fill-rule:evenodd"
     inkscape:connector-curvature="0"
     d="m 73.761,169.9261 2.12,-8.523 c 0.013,-0.067 0.027,-0.124 0.041,-0.176 0.015,-0.053 0.024,-0.095 0.024,-0.127 0.002,-0.128 -0.045,-0.25 -0.141,-0.369 -0.095,-0.117 -0.251,-0.18 -0.464,-0.189 -0.316,0.021 -0.532,0.133 -0.649,0.333 -0.116,0.2 -0.18,0.353 -0.195,0.464 l -1.58,6.364 c -0.052,0.221 -0.179,0.481 -0.376,0.779 -0.2,0.297 -0.464,0.56 -0.788,0.788 -0.325,0.226 -0.7,0.348 -1.127,0.36 -0.473,-0.026 -0.788,-0.215 -0.946,-0.566 -0.159,-0.352 -0.231,-0.72 -0.22,-1.102 0.02,-0.683 0.16,-1.455 0.425,-2.312 0.263,-0.86 0.541,-1.671 0.828,-2.43 0.085,-0.221 0.155,-0.421 0.205,-0.6 0.048,-0.178 0.074,-0.368 0.074,-0.568 -0.01,-0.546 -0.166,-0.972 -0.471,-1.278 -0.304,-0.304 -0.693,-0.462 -1.168,-0.466 -0.501,0.018 -0.927,0.183 -1.279,0.502 -0.353,0.317 -0.637,0.689 -0.856,1.113 -0.22,0.423 -0.378,0.801 -0.48,1.135 -0.1,0.334 -0.15,0.525 -0.149,0.573 0.005,0.105 0.047,0.168 0.121,0.192 0.074,0.021 0.143,0.031 0.204,0.027 0.134,0.004 0.222,-0.016 0.267,-0.06 0.044,-0.044 0.084,-0.14 0.123,-0.288 0.054,-0.243 0.161,-0.579 0.318,-1.004 0.158,-0.426 0.374,-0.814 0.65,-1.166 0.277,-0.35 0.624,-0.536 1.038,-0.558 0.122,-0.008 0.232,0.025 0.328,0.102 0.094,0.078 0.144,0.255 0.15,0.527 -0.004,0.255 -0.052,0.539 -0.148,0.851 -0.096,0.314 -0.22,0.678 -0.374,1.097 -0.292,0.769 -0.548,1.524 -0.769,2.268 -0.223,0.743 -0.34,1.4 -0.351,1.976 0.028,0.928 0.284,1.58 0.771,1.956 0.484,0.376 1.035,0.559 1.645,0.544 0.498,-0.015 0.911,-0.112 1.239,-0.291 0.328,-0.176 0.564,-0.344 0.705,-0.498 -0.281,1.178 -0.625,2.098 -1.032,2.758 -0.406,0.662 -0.826,1.123 -1.261,1.386 -0.436,0.264 -0.836,0.389 -1.207,0.381 -0.34,-0.011 -0.609,-0.084 -0.805,-0.219 -0.195,-0.137 -0.333,-0.277 -0.415,-0.425 -0.08,-0.148 -0.118,-0.245 -0.116,-0.291 -0.002,-10e-4 0.008,-0.009 0.03,-0.025 0.021,-0.013 0.07,-0.028 0.144,-0.039 0.33,-0.07 0.57,-0.213 0.714,-0.433 0.144,-0.219 0.216,-0.421 0.212,-0.609 -0.005,-0.23 -0.078,-0.403 -0.22,-0.519 -0.142,-0.117 -0.312,-0.176 -0.512,-0.177 -0.16,-0.015 -0.376,0.06 -0.646,0.225 -0.272,0.164 -0.424,0.541 -0.454,1.127 0.012,0.568 0.208,1.018 0.591,1.346 0.38,0.328 0.873,0.498 1.48,0.504 0.757,-0.014 1.461,-0.233 2.115,-0.654 0.652,-0.423 1.209,-0.963 1.67,-1.623 0.462,-0.663 0.787,-1.356 0.974,-2.083 z"
     id="dp_path018" />
  <path
     style="fill:#000000;fill-rule:evenodd"
     inkscape:connector-curvature="0"
     d="m 88.044,164.4541 c 0.016,-0.867 -0.074,-1.896 -0.267,-3.091 -0.195,-1.193 -0.58,-2.413 -1.161,-3.659 -0.447,-0.888 -0.916,-1.634 -1.404,-2.236 -0.491,-0.604 -0.92,-1.06 -1.29,-1.366 -0.369,-0.308 -0.596,-0.464 -0.681,-0.464 -0.067,0 -0.119,0.02 -0.156,0.06 -0.04,0.037 -0.06,0.09 -0.06,0.157 -0.009,0.023 0.007,0.067 0.051,0.125 0.042,0.06 0.161,0.184 0.36,0.372 1.068,1.075 1.892,2.462 2.472,4.158 0.58,1.698 0.874,3.68 0.881,5.944 0.021,1.874 -0.223,3.701 -0.735,5.481 -0.514,1.779 -1.43,3.364 -2.748,4.751 -0.136,0.125 -0.218,0.21 -0.246,0.257 -0.03,0.047 -0.043,0.083 -0.035,0.109 0,0.067 0.02,0.12 0.06,0.158 0.037,0.04 0.089,0.06 0.156,0.06 0.087,0 0.321,-0.163 0.703,-0.484 0.382,-0.32 0.824,-0.794 1.325,-1.42 0.5,-0.626 0.971,-1.398 1.412,-2.314 0.539,-1.202 0.905,-2.372 1.096,-3.51 0.192,-1.138 0.28,-2.167 0.267,-3.088 z"
     id="dp_path019" />
  <path
     style="fill:#000000;fill-rule:evenodd"
     inkscape:connector-curvature="0"
     d="m 35.96,175.0521 c 0.009,-0.024 -0.007,-0.066 -0.046,-0.124 -0.037,-0.057 -0.145,-0.174 -0.322,-0.352 -0.892,-0.92 -1.587,-1.953 -2.082,-3.098 -0.494,-1.147 -0.84,-2.324 -1.033,-3.534 -0.195,-1.209 -0.289,-2.374 -0.281,-3.49 -0.02,-1.904 0.226,-3.743 0.744,-5.514 0.517,-1.772 1.43,-3.344 2.738,-4.717 0.136,-0.127 0.219,-0.212 0.248,-0.259 0.028,-0.046 0.042,-0.082 0.034,-0.109 0,-0.076 -0.02,-0.132 -0.059,-0.167 -0.039,-0.033 -0.091,-0.052 -0.157,-0.05 -0.087,0 -0.322,0.162 -0.703,0.484 -0.383,0.32 -0.824,0.793 -1.325,1.42 -0.5,0.625 -0.971,1.397 -1.412,2.313 -0.539,1.203 -0.906,2.373 -1.096,3.511 -0.191,1.137 -0.28,2.166 -0.267,3.088 -0.016,0.866 0.073,1.897 0.267,3.09 0.194,1.194 0.58,2.414 1.161,3.66 0.447,0.887 0.916,1.634 1.404,2.235 0.491,0.604 0.92,1.06 1.289,1.367 0.37,0.308 0.596,0.464 0.682,0.464 0.066,10e-4 0.118,-0.016 0.157,-0.051 0.039,-0.035 0.059,-0.091 0.059,-0.167 z"
     id="dp_path020" />
  <path
     style="fill:#000000;fill-rule:evenodd"
     inkscape:connector-curvature="0"
     d="m 54.433,171.9591 0,-0.441 -0.461,0 c -0.426,0.001 -0.732,-0.02 -0.924,-0.062 -0.191,-0.042 -0.311,-0.114 -0.358,-0.214 -0.046,-0.102 -0.066,-0.242 -0.058,-0.416 l 0,-8.087 c 0.006,-0.168 -0.008,-0.273 -0.043,-0.319 -0.033,-0.044 -0.131,-0.062 -0.289,-0.057 -0.306,0.303 -0.631,0.519 -0.976,0.652 -0.344,0.131 -0.666,0.209 -0.96,0.239 -0.298,0.029 -0.527,0.04 -0.688,0.034 l 0,0.443 c 0.157,0.008 0.414,-0.008 0.772,-0.047 0.354,-0.037 0.728,-0.146 1.117,-0.325 l 0,7.467 c 0.007,0.172 -0.012,0.308 -0.06,0.409 -0.047,0.101 -0.167,0.175 -0.357,0.217 -0.191,0.046 -0.499,0.067 -0.924,0.066 l -0.462,0 0,0.441 c 0.176,-0.012 0.411,-0.024 0.702,-0.029 0.29,-0.007 0.585,-0.01 0.884,-0.011 0.3,-10e-4 0.549,-0.003 0.75,-10e-4 0.2,-0.002 0.45,0 0.75,10e-4 0.298,0.001 0.593,0.004 0.884,0.011 0.29,0.005 0.525,0.017 0.701,0.029 z"
     id="dp_path021" />
  <path
     style="fill:#000000;fill-rule:evenodd"
     inkscape:connector-curvature="0"
     d="m 81.433,171.9591 0,-0.441 -0.461,0 c -0.426,0.001 -0.732,-0.02 -0.924,-0.062 -0.191,-0.042 -0.311,-0.114 -0.358,-0.214 -0.046,-0.102 -0.066,-0.242 -0.058,-0.416 l 0,-8.087 c 0.006,-0.168 -0.008,-0.273 -0.043,-0.319 -0.033,-0.044 -0.131,-0.062 -0.289,-0.057 -0.306,0.303 -0.631,0.519 -0.976,0.652 -0.344,0.131 -0.666,0.209 -0.96,0.239 -0.298,0.029 -0.527,0.04 -0.688,0.034 l 0,0.443 c 0.157,0.008 0.414,-0.008 0.772,-0.047 0.354,-0.037 0.728,-0.146 1.117,-0.325 l 0,7.467 c 0.007,0.172 -0.012,0.308 -0.06,0.409 -0.047,0.101 -0.167,0.175 -0.357,0.217 -0.191,0.046 -0.499,0.067 -0.924,0.066 l -0.462,0 0,0.441 c 0.176,-0.012 0.411,-0.024 0.702,-0.029 0.29,-0.007 0.585,-0.01 0.884,-0.011 0.3,-10e-4 0.549,-0.003 0.75,-10e-4 0.2,-0.002 0.45,0 0.75,10e-4 0.298,0.001 0.593,0.004 0.884,0.011 0.29,0.005 0.525,0.017 0.701,0.029 z"
     id="dp_path022" />
  <path
     style="fill:#000000;fill-rule:evenodd"
     inkscape:connector-curvature="0"
     d="m 60.17,169.8391 c -0.001,-0.697 -0.124,-1.248 -0.361,-1.649 -0.239,-0.403 -0.577,-0.608 -1.012,-0.615 -0.38,0.012 -0.665,0.131 -0.859,0.36 -0.192,0.229 -0.288,0.489 -0.288,0.783 -10e-4,0.293 0.092,0.553 0.282,0.782 0.188,0.228 0.476,0.348 0.865,0.36 0.163,0 0.317,-0.03 0.465,-0.089 0.146,-0.061 0.28,-0.147 0.4,-0.255 0.015,0.854 -0.113,1.615 -0.384,2.284 -0.272,0.671 -0.649,1.259 -1.13,1.767 -0.063,0.061 -0.104,0.107 -0.124,0.136 -0.02,0.028 -0.03,0.063 -0.027,0.103 10e-4,0.076 0.023,0.134 0.067,0.176 0.042,0.041 0.092,0.061 0.149,0.061 0.104,-0.005 0.313,-0.184 0.621,-0.535 0.311,-0.352 0.607,-0.842 0.888,-1.472 0.279,-0.626 0.431,-1.361 0.448,-2.197 z"
     id="dp_path023" />
  <path
     style="fill:#026602;fill-rule:evenodd"
     inkscape:connector-curvature="0"
     d="m 139.4654,133.52964 c -0.072,-0.29 -0.166,-0.574 -0.282,-0.854 -0.116,-0.281 -0.266,-0.529 -0.454,-0.746 -0.187,-0.216 -0.407,-0.392 -0.66,-0.53 -0.252,-0.137 -0.551,-0.205 -0.898,-0.205 -0.346,0 -0.677,0.068 -0.994,0.205 -0.318,0.138 -0.622,0.314 -0.91,0.53 -0.288,0.217 -0.562,0.465 -0.822,0.746 -0.259,0.28 -0.498,0.564 -0.714,0.854 -0.649,0.85 -1.168,1.734 -1.557,2.649 -0.389,0.916 -0.7,1.841 -0.931,2.779 -0.245,0.937 -0.4,1.864 -0.465,2.778 -0.064,0.916 0.011,1.799 0.228,2.651 0.072,0.288 0.169,0.569 0.292,0.841 0.123,0.274 0.273,0.519 0.453,0.736 0.182,0.216 0.398,0.392 0.65,0.53 0.252,0.137 0.552,0.205 0.898,0.205 0.346,0 0.678,-0.068 0.995,-0.205 0.317,-0.138 0.624,-0.314 0.92,-0.53 0.295,-0.217 0.573,-0.462 0.832,-0.736 0.26,-0.272 0.497,-0.553 0.715,-0.841 0.634,-0.852 1.146,-1.735 1.536,-2.651 0.389,-0.914 0.706,-1.841 0.952,-2.778 0.23,-0.938 0.378,-1.863 0.442,-2.779 0.066,-0.915 -0.01,-1.799 -0.226,-2.649 z m -1.212,0.17 c 0.072,0.782 0.029,1.583 -0.13,2.407 -0.158,0.824 -0.338,1.663 -0.541,2.516 l -4.521,0 c 0.201,-0.853 0.433,-1.692 0.692,-2.516 0.26,-0.824 0.62,-1.625 1.082,-2.407 0.331,-0.548 0.674,-1.025 1.027,-1.429 0.353,-0.405 0.755,-0.608 1.201,-0.608 0.216,0 0.396,0.055 0.54,0.163 0.146,0.108 0.26,0.256 0.347,0.445 0.087,0.188 0.152,0.404 0.195,0.649 0.044,0.247 0.08,0.507 0.108,0.78 z m -0.844,5.59 c -0.202,0.85 -0.432,1.684 -0.692,2.497 -0.259,0.815 -0.62,1.619 -1.082,2.412 -0.317,0.547 -0.656,1.023 -1.017,1.425 -0.36,0.404 -0.757,0.607 -1.189,0.607 -0.216,0 -0.4,-0.055 -0.552,-0.163 -0.151,-0.108 -0.271,-0.256 -0.358,-0.444 -0.086,-0.186 -0.154,-0.402 -0.205,-0.648 -0.051,-0.245 -0.083,-0.504 -0.097,-0.777 -0.058,-0.793 -0.011,-1.597 0.141,-2.412 0.151,-0.813 0.328,-1.647 0.529,-2.497 z"
     id="dp_path024" />
  <path
     style="fill:#69056b;fill-rule:evenodd"
     inkscape:connector-curvature="0"
     d="m 134.50899,187.55246 -7.487,-15.036 c -0.085,-0.159 -0.216,-0.238 -0.389,-0.238 l -0.195,0 c -0.186,0 -0.317,0.079 -0.389,0.238 l -7.485,15.036 c -0.03,0.057 -0.03,0.112 0,0.162 0.029,0.051 0.08,0.076 0.152,0.076 l 15.641,0 c 0.072,0 0.123,-0.025 0.152,-0.076 0.028,-0.05 0.028,-0.105 0,-0.162 z m -2.661,-1.295 -11.899,0 5.949,-11.943 z"
     id="dp_path025" />
  <path
     style="fill:#69056b;fill-rule:evenodd"
     inkscape:connector-curvature="0"
     d="m 146.06599,184.69846 c -0.002,-0.102 -0.038,-0.166 -0.105,-0.189 -0.065,-0.023 -0.14,-0.031 -0.219,-0.028 -0.122,-0.005 -0.208,0.013 -0.252,0.055 -0.044,0.042 -0.09,0.148 -0.137,0.313 -0.307,0.929 -0.696,1.612 -1.167,2.052 -0.472,0.441 -0.942,0.66 -1.413,0.656 -0.231,0.013 -0.456,-0.077 -0.671,-0.272 -0.216,-0.193 -0.332,-0.564 -0.348,-1.115 0.007,-0.272 0.055,-0.609 0.14,-1.013 0.09,-0.401 0.179,-0.793 0.274,-1.173 l 0.737,-2.966 c 0.148,-0.589 0.376,-1.116 0.684,-1.58 0.309,-0.465 0.716,-0.709 1.223,-0.737 0.046,-0.005 0.169,0.008 0.369,0.039 0.203,0.032 0.396,0.12 0.583,0.264 -0.415,0.14 -0.667,0.34 -0.758,0.602 -0.089,0.262 -0.125,0.408 -0.108,0.439 -0.004,0.151 0.052,0.303 0.168,0.451 0.115,0.149 0.312,0.23 0.59,0.241 0.214,0.005 0.44,-0.081 0.676,-0.257 0.236,-0.176 0.364,-0.474 0.384,-0.89 -0.011,-0.364 -0.128,-0.644 -0.348,-0.84 -0.222,-0.197 -0.478,-0.333 -0.768,-0.408 -0.291,-0.076 -0.547,-0.109 -0.767,-0.106 -0.397,0.009 -0.743,0.106 -1.032,0.286 -0.291,0.183 -0.529,0.387 -0.711,0.614 -0.182,0.228 -0.31,0.414 -0.382,0.562 -0.262,-0.628 -0.6,-1.033 -1.016,-1.217 -0.415,-0.184 -0.771,-0.264 -1.064,-0.245 -0.543,0.013 -1.023,0.162 -1.438,0.449 -0.414,0.287 -0.762,0.628 -1.045,1.025 -0.281,0.399 -0.495,0.772 -0.639,1.12 -0.144,0.348 -0.216,0.592 -0.216,0.728 0.007,0.106 0.047,0.168 0.122,0.19 0.074,0.024 0.141,0.033 0.202,0.028 0.132,0.006 0.219,-0.011 0.26,-0.055 0.04,-0.041 0.083,-0.145 0.13,-0.313 0.309,-0.927 0.704,-1.611 1.182,-2.051 0.483,-0.441 0.947,-0.659 1.398,-0.656 0.317,0.004 0.57,0.123 0.756,0.359 0.185,0.234 0.281,0.57 0.285,1.006 -0.008,0.276 -0.059,0.639 -0.156,1.086 -0.095,0.446 -0.196,0.877 -0.3,1.296 l -0.499,1.969 c -0.112,0.481 -0.248,0.963 -0.41,1.44 -0.163,0.477 -0.379,0.876 -0.646,1.199 -0.269,0.321 -0.618,0.489 -1.048,0.501 -0.044,0.005 -0.165,-0.007 -0.361,-0.037 -0.197,-0.034 -0.393,-0.122 -0.591,-0.267 0.32,-0.097 0.542,-0.253 0.666,-0.463 0.125,-0.21 0.184,-0.401 0.178,-0.576 -0.012,-0.276 -0.101,-0.461 -0.262,-0.557 -0.162,-0.097 -0.32,-0.143 -0.472,-0.135 -0.282,0.003 -0.531,0.108 -0.746,0.315 -0.212,0.208 -0.326,0.492 -0.337,0.853 0.016,0.426 0.209,0.754 0.579,0.983 0.369,0.231 0.812,0.348 1.325,0.349 0.521,-0.02 0.959,-0.182 1.315,-0.486 0.354,-0.306 0.625,-0.63 0.81,-0.976 0.24,0.598 0.567,0.997 0.982,1.192 0.413,0.197 0.773,0.286 1.077,0.27 0.56,-0.012 1.047,-0.165 1.464,-0.457 0.419,-0.293 0.765,-0.639 1.043,-1.043 0.277,-0.402 0.485,-0.774 0.624,-1.121 0.138,-0.347 0.206,-0.58 0.206,-0.703 z"
     id="dp_path026" />
  <path
     style="fill:#69056b;fill-rule:evenodd"
     inkscape:connector-curvature="0"
     d="m 165.23599,181.24246 c 0,-0.116 -0.044,-0.217 -0.131,-0.304 -0.087,-0.086 -0.187,-0.129 -0.303,-0.129 l -13.5,0 c -0.114,0 -0.216,0.043 -0.302,0.129 -0.087,0.087 -0.13,0.188 -0.13,0.304 0,0.115 0.043,0.216 0.13,0.303 0.086,0.087 0.188,0.129 0.302,0.129 l 13.5,0 c 0.116,0 0.216,-0.042 0.303,-0.129 0.087,-0.087 0.131,-0.188 0.131,-0.303 z m 0,4.183 c 0,-0.116 -0.044,-0.217 -0.131,-0.304 -0.087,-0.087 -0.187,-0.129 -0.303,-0.129 l -13.5,0 c -0.114,0 -0.216,0.042 -0.302,0.129 -0.087,0.087 -0.13,0.188 -0.13,0.304 0,0.115 0.043,0.216 0.13,0.303 0.086,0.086 0.188,0.129 0.302,0.129 l 13.5,0 c 0.116,0 0.216,-0.043 0.303,-0.129 0.087,-0.087 0.131,-0.188 0.131,-0.303 z"
     id="dp_path027" />
  <path
     style="fill:#69056b;fill-rule:evenodd"
     inkscape:connector-curvature="0"
     d="m 177.19399,184.57346 c -0.002,-0.103 -0.038,-0.167 -0.105,-0.189 -0.065,-0.023 -0.14,-0.031 -0.219,-0.028 -0.122,-0.006 -0.208,0.013 -0.252,0.054 -0.044,0.043 -0.09,0.148 -0.137,0.314 -0.307,0.929 -0.696,1.612 -1.167,2.052 -0.472,0.441 -0.942,0.66 -1.413,0.656 -0.231,0.013 -0.456,-0.078 -0.671,-0.272 -0.216,-0.194 -0.332,-0.564 -0.348,-1.115 0.007,-0.272 0.055,-0.609 0.14,-1.013 0.09,-0.402 0.179,-0.794 0.274,-1.174 l 0.737,-2.965 c 0.148,-0.589 0.376,-1.116 0.684,-1.58 0.309,-0.465 0.716,-0.709 1.223,-0.737 0.046,-0.006 0.169,0.008 0.369,0.038 0.203,0.032 0.396,0.12 0.583,0.264 -0.415,0.14 -0.667,0.34 -0.758,0.603 -0.089,0.261 -0.125,0.408 -0.108,0.439 -0.004,0.15 0.052,0.302 0.168,0.45 0.115,0.15 0.312,0.231 0.59,0.242 0.214,0.005 0.44,-0.082 0.676,-0.258 0.236,-0.176 0.364,-0.473 0.384,-0.889 -0.011,-0.364 -0.128,-0.644 -0.348,-0.84 -0.222,-0.197 -0.478,-0.333 -0.768,-0.408 -0.291,-0.076 -0.547,-0.109 -0.767,-0.107 -0.397,0.01 -0.743,0.107 -1.032,0.287 -0.291,0.183 -0.529,0.387 -0.711,0.613 -0.182,0.228 -0.31,0.415 -0.382,0.563 -0.262,-0.628 -0.6,-1.033 -1.016,-1.217 -0.415,-0.184 -0.771,-0.264 -1.064,-0.246 -0.543,0.014 -1.023,0.163 -1.438,0.45 -0.414,0.286 -0.762,0.628 -1.045,1.025 -0.281,0.399 -0.495,0.772 -0.639,1.12 -0.144,0.348 -0.216,0.592 -0.216,0.728 0.007,0.105 0.047,0.168 0.122,0.189 0.074,0.024 0.141,0.034 0.202,0.028 0.132,0.007 0.219,-0.01 0.26,-0.054 0.04,-0.042 0.083,-0.146 0.13,-0.314 0.309,-0.926 0.704,-1.61 1.182,-2.05 0.483,-0.442 0.947,-0.659 1.398,-0.656 0.317,0.004 0.57,0.122 0.756,0.358 0.185,0.235 0.281,0.571 0.285,1.007 -0.008,0.276 -0.059,0.639 -0.156,1.085 -0.095,0.447 -0.196,0.878 -0.3,1.296 l -0.499,1.97 c -0.112,0.481 -0.248,0.962 -0.41,1.44 -0.163,0.477 -0.379,0.876 -0.646,1.198 -0.269,0.322 -0.618,0.49 -1.048,0.502 -0.044,0.005 -0.165,-0.007 -0.361,-0.038 -0.197,-0.033 -0.393,-0.121 -0.591,-0.266 0.32,-0.098 0.542,-0.254 0.666,-0.463 0.125,-0.211 0.184,-0.401 0.178,-0.576 -0.012,-0.276 -0.101,-0.461 -0.262,-0.557 -0.162,-0.098 -0.32,-0.143 -0.472,-0.135 -0.282,0.003 -0.531,0.108 -0.746,0.315 -0.212,0.208 -0.326,0.492 -0.337,0.853 0.016,0.425 0.209,0.753 0.579,0.983 0.369,0.23 0.812,0.348 1.325,0.349 0.521,-0.02 0.959,-0.183 1.315,-0.487 0.354,-0.305 0.625,-0.629 0.81,-0.976 0.24,0.599 0.567,0.998 0.982,1.192 0.413,0.198 0.773,0.287 1.077,0.271 0.56,-0.012 1.047,-0.165 1.464,-0.457 0.419,-0.294 0.765,-0.639 1.043,-1.043 0.277,-0.403 0.485,-0.775 0.624,-1.121 0.138,-0.347 0.206,-0.58 0.206,-0.703 z"
     id="dp_path028" />
  <path
     style="fill:#69056b;fill-rule:evenodd"
     inkscape:connector-curvature="0"
     d="m 217.19399,184.57346 c -0.002,-0.103 -0.038,-0.167 -0.105,-0.189 -0.065,-0.023 -0.14,-0.031 -0.219,-0.028 -0.122,-0.006 -0.208,0.013 -0.252,0.054 -0.044,0.043 -0.09,0.148 -0.137,0.314 -0.307,0.929 -0.696,1.612 -1.167,2.052 -0.472,0.441 -0.942,0.66 -1.413,0.656 -0.231,0.013 -0.456,-0.078 -0.671,-0.272 -0.216,-0.194 -0.332,-0.564 -0.348,-1.115 0.007,-0.272 0.055,-0.609 0.14,-1.013 0.09,-0.402 0.179,-0.794 0.274,-1.174 l 0.737,-2.965 c 0.148,-0.589 0.376,-1.116 0.684,-1.58 0.309,-0.465 0.716,-0.709 1.223,-0.737 0.046,-0.006 0.169,0.008 0.369,0.038 0.203,0.032 0.396,0.12 0.583,0.264 -0.415,0.14 -0.667,0.34 -0.758,0.603 -0.089,0.261 -0.125,0.408 -0.108,0.439 -0.004,0.15 0.052,0.302 0.168,0.45 0.115,0.15 0.312,0.231 0.59,0.242 0.214,0.005 0.44,-0.082 0.676,-0.258 0.236,-0.176 0.364,-0.473 0.384,-0.889 -0.011,-0.364 -0.128,-0.644 -0.348,-0.84 -0.222,-0.197 -0.478,-0.333 -0.768,-0.408 -0.291,-0.076 -0.547,-0.109 -0.767,-0.107 -0.397,0.01 -0.743,0.107 -1.032,0.287 -0.291,0.183 -0.529,0.387 -0.711,0.613 -0.182,0.228 -0.31,0.415 -0.382,0.563 -0.262,-0.628 -0.6,-1.033 -1.016,-1.217 -0.415,-0.184 -0.771,-0.264 -1.064,-0.246 -0.543,0.014 -1.023,0.163 -1.438,0.45 -0.414,0.286 -0.762,0.628 -1.045,1.025 -0.281,0.399 -0.495,0.772 -0.639,1.12 -0.144,0.348 -0.216,0.592 -0.216,0.728 0.007,0.105 0.047,0.168 0.122,0.189 0.074,0.024 0.141,0.034 0.202,0.028 0.132,0.007 0.219,-0.01 0.26,-0.054 0.04,-0.042 0.083,-0.146 0.13,-0.314 0.309,-0.926 0.704,-1.61 1.182,-2.05 0.483,-0.442 0.947,-0.659 1.398,-0.656 0.317,0.004 0.57,0.122 0.756,0.358 0.185,0.235 0.281,0.571 0.285,1.007 -0.008,0.276 -0.059,0.639 -0.156,1.085 -0.095,0.447 -0.196,0.878 -0.3,1.296 l -0.499,1.97 c -0.112,0.481 -0.248,0.962 -0.41,1.44 -0.163,0.477 -0.379,0.876 -0.646,1.198 -0.269,0.322 -0.618,0.49 -1.048,0.502 -0.044,0.005 -0.165,-0.007 -0.361,-0.038 -0.197,-0.033 -0.393,-0.121 -0.591,-0.266 0.32,-0.098 0.542,-0.254 0.666,-0.463 0.125,-0.211 0.184,-0.401 0.178,-0.576 -0.012,-0.276 -0.101,-0.461 -0.262,-0.557 -0.162,-0.098 -0.32,-0.143 -0.472,-0.135 -0.282,0.003 -0.531,0.108 -0.746,0.315 -0.212,0.208 -0.326,0.492 -0.337,0.853 0.016,0.425 0.209,0.753 0.579,0.983 0.369,0.23 0.812,0.348 1.325,0.349 0.521,-0.02 0.959,-0.183 1.315,-0.487 0.354,-0.305 0.625,-0.629 0.81,-0.976 0.24,0.599 0.567,0.998 0.982,1.192 0.413,0.198 0.773,0.287 1.077,0.271 0.56,-0.012 1.047,-0.165 1.464,-0.457 0.419,-0.294 0.765,-0.639 1.043,-1.043 0.277,-0.403 0.485,-0.775 0.624,-1.121 0.138,-0.347 0.206,-0.58 0.206,-0.703 z"
     id="dp_path029" />
  <path
     style="fill:#69056b;fill-rule:evenodd"
     inkscape:connector-curvature="0"
     d="m 204.11599,183.70846 0,-1.255 -12.942,0 0,1.255 z"
     id="dp_path030" />
  <path
     style="fill:#69056b;fill-rule:evenodd"
     inkscape:connector-curvature="0"
     d="m 185.70499,187.25046 -0.359,0 c -0.034,0.231 -0.078,0.474 -0.13,0.728 -0.052,0.254 -0.114,0.443 -0.186,0.564 -0.042,0.039 -0.152,0.066 -0.329,0.082 -0.176,0.017 -0.365,0.026 -0.565,0.03 -0.202,0.003 -0.36,0.004 -0.475,0.004 l -2.599,0 1.53,-1.493 c 0.748,-0.651 1.35,-1.201 1.808,-1.652 0.458,-0.452 0.792,-0.873 1,-1.265 0.208,-0.392 0.309,-0.822 0.305,-1.292 -0.016,-0.835 -0.305,-1.506 -0.865,-2.011 -0.562,-0.507 -1.292,-0.767 -2.191,-0.78 -0.547,0.009 -1.021,0.139 -1.423,0.389 -0.402,0.252 -0.714,0.576 -0.936,0.97 -0.221,0.394 -0.334,0.809 -0.336,1.245 0.008,0.264 0.071,0.452 0.187,0.568 0.117,0.113 0.237,0.184 0.359,0.209 0.121,0.024 0.194,0.035 0.217,0.028 0.137,0.007 0.292,-0.048 0.465,-0.16 0.174,-0.11 0.267,-0.312 0.283,-0.602 0,-0.195 -0.064,-0.367 -0.192,-0.515 -0.129,-0.148 -0.319,-0.227 -0.571,-0.233 -0.056,-0.002 -0.096,0 -0.12,0.001 -0.025,0.001 -0.048,0.005 -0.068,0.013 0.175,-0.472 0.435,-0.834 0.784,-1.086 0.35,-0.254 0.738,-0.38 1.164,-0.384 0.439,0.006 0.8,0.122 1.086,0.346 0.288,0.224 0.5,0.514 0.641,0.868 0.14,0.355 0.209,0.732 0.209,1.134 -0.014,0.584 -0.168,1.15 -0.461,1.696 -0.292,0.546 -0.644,1.044 -1.052,1.496 l -2.773,3.084 c -0.076,0.069 -0.122,0.134 -0.139,0.194 -0.017,0.062 -0.023,0.174 -0.019,0.335 l 5.351,0 z"
     id="dp_path031" />
  <path
     style="fill:#69056b;fill-rule:evenodd"
     inkscape:connector-curvature="0"
     d="m 223.27299,189.76146 0,-0.441 -0.461,0 c -0.426,0.001 -0.732,-0.02 -0.924,-0.062 -0.191,-0.042 -0.311,-0.114 -0.358,-0.214 -0.046,-0.102 -0.066,-0.242 -0.058,-0.416 l 0,-8.087 c 0.006,-0.168 -0.008,-0.273 -0.043,-0.319 -0.033,-0.044 -0.131,-0.062 -0.289,-0.057 -0.306,0.303 -0.631,0.519 -0.976,0.652 -0.344,0.131 -0.666,0.209 -0.96,0.239 -0.298,0.029 -0.527,0.04 -0.688,0.034 l 0,0.443 c 0.157,0.008 0.414,-0.008 0.772,-0.047 0.354,-0.037 0.728,-0.146 1.117,-0.325 l 0,7.467 c 0.007,0.172 -0.012,0.308 -0.06,0.409 -0.047,0.101 -0.167,0.175 -0.357,0.217 -0.191,0.046 -0.499,0.067 -0.924,0.066 l -0.462,0 0,0.441 c 0.176,-0.012 0.411,-0.024 0.702,-0.029 0.29,-0.007 0.585,-0.01 0.884,-0.011 0.3,-0.001 0.549,-0.003 0.75,-0.001 0.2,-0.002 0.45,0 0.75,0.001 0.298,0.001 0.593,0.004 0.884,0.011 0.29,0.005 0.525,0.017 0.701,0.029 z"
     id="dp_path032" />
  <path
     style="fill:#006667;fill-rule:evenodd"
     inkscape:connector-curvature="0"
     d="m 180.42,107.1311 -7.487,-15.036003 c -0.085,-0.159 -0.216,-0.237 -0.389,-0.237 l -0.195,0 c -0.187,0 -0.317,0.078 -0.389,0.237 l -7.486,15.036003 c -0.029,0.057 -0.029,0.112 0,0.163 0.03,0.05 0.08,0.076 0.152,0.076 l 15.642,0 c 0.072,0 0.122,-0.026 0.152,-0.076 0.028,-0.051 0.028,-0.106 0,-0.163 z m -2.662,-1.295 -11.898,0 5.949,-11.942003 z"
     id="dp_path033" />
  <path
     style="fill:#006667;fill-rule:evenodd"
     inkscape:connector-curvature="0"
     d="m 190.384,107.4321 2.12,-8.522 c 0.013,-0.067 0.026,-0.124 0.041,-0.176 0.015,-0.054 0.024,-0.095 0.024,-0.127 0.001,-0.128 -0.045,-0.251 -0.141,-0.369 -0.095,-0.118 -0.251,-0.18 -0.464,-0.19 -0.316,0.022 -0.532,0.134 -0.65,0.334 -0.116,0.2 -0.18,0.353 -0.194,0.464 l -1.58,6.364 c -0.052,0.221 -0.179,0.481 -0.376,0.778 -0.2,0.298 -0.464,0.56 -0.788,0.788 -0.326,0.227 -0.7,0.348 -1.127,0.36 -0.473,-0.025 -0.788,-0.214 -0.947,-0.565 -0.158,-0.352 -0.23,-0.72 -0.22,-1.103 0.02,-0.682 0.16,-1.454 0.426,-2.312 0.262,-0.86 0.541,-1.67 0.828,-2.429 0.085,-0.221 0.154,-0.421 0.205,-0.6 0.048,-0.179 0.073,-0.368 0.073,-0.568 -0.009,-0.547 -0.165,-0.972 -0.47,-1.279 -0.304,-0.304 -0.694,-0.461 -1.168,-0.465 -0.502,0.017 -0.927,0.183 -1.279,0.501 -0.353,0.318 -0.637,0.69 -0.856,1.114 -0.22,0.422 -0.379,0.801 -0.48,1.134 -0.1,0.335 -0.151,0.526 -0.149,0.574 0.005,0.105 0.046,0.168 0.121,0.192 0.073,0.021 0.143,0.03 0.204,0.026 0.133,0.004 0.221,-0.016 0.267,-0.06 0.044,-0.044 0.084,-0.14 0.122,-0.288 0.055,-0.242 0.162,-0.578 0.319,-1.004 0.157,-0.425 0.373,-0.813 0.649,-1.165 0.278,-0.351 0.624,-0.536 1.039,-0.559 0.121,-0.008 0.232,0.026 0.328,0.103 0.093,0.077 0.144,0.255 0.149,0.527 -0.004,0.254 -0.052,0.538 -0.148,0.85 -0.096,0.315 -0.22,0.679 -0.373,1.098 -0.292,0.769 -0.548,1.524 -0.769,2.268 -0.223,0.742 -0.34,1.4 -0.351,1.976 0.028,0.928 0.284,1.58 0.771,1.956 0.484,0.376 1.034,0.558 1.645,0.544 0.497,-0.015 0.911,-0.112 1.239,-0.291 0.328,-0.176 0.564,-0.344 0.705,-0.499 -0.281,1.179 -0.625,2.099 -1.032,2.759 -0.407,0.661 -0.827,1.123 -1.261,1.385 -0.436,0.264 -0.836,0.39 -1.207,0.382 -0.34,-0.011 -0.609,-0.084 -0.805,-0.219 -0.195,-0.137 -0.334,-0.277 -0.415,-0.425 -0.08,-0.148 -0.119,-0.246 -0.116,-0.291 -0.003,-10e-4 0.008,-0.009 0.029,-0.025 0.022,-0.014 0.071,-0.028 0.144,-0.039 0.331,-0.071 0.571,-0.213 0.715,-0.433 0.144,-0.219 0.216,-0.422 0.212,-0.61 -0.005,-0.229 -0.079,-0.402 -0.22,-0.518 -0.143,-0.118 -0.312,-0.176 -0.512,-0.178 -0.16,-0.014 -0.376,0.06 -0.647,0.226 -0.272,0.164 -0.424,0.541 -0.453,1.126 0.012,0.568 0.208,1.019 0.591,1.347 0.38,0.328 0.873,0.497 1.48,0.504 0.757,-0.015 1.461,-0.233 2.114,-0.655 0.652,-0.422 1.21,-0.962 1.671,-1.622 0.461,-0.663 0.787,-1.356 0.973,-2.083 z"
     id="dp_path034" />
  <path
     style="fill:#006667;fill-rule:evenodd"
     inkscape:connector-curvature="0"
     d="m 211.146,100.8221 c 0,-0.116 -0.044,-0.218 -0.13,-0.304 -0.087,-0.087 -0.187,-0.13 -0.303,-0.13 l -13.5,0 c -0.115,0 -0.216,0.043 -0.303,0.13 -0.086,0.086 -0.129,0.188 -0.129,0.304 0,0.114 0.043,0.216 0.129,0.302 0.087,0.087 0.188,0.13 0.303,0.13 l 13.5,0 c 0.116,0 0.216,-0.043 0.303,-0.13 0.086,-0.086 0.13,-0.188 0.13,-0.302 z m 0,4.182 c 0,-0.116 -0.044,-0.217 -0.13,-0.304 -0.087,-0.086 -0.187,-0.129 -0.303,-0.129 l -13.5,0 c -0.115,0 -0.216,0.043 -0.303,0.129 -0.086,0.087 -0.129,0.188 -0.129,0.304 0,0.115 0.043,0.216 0.129,0.303 0.087,0.087 0.188,0.129 0.303,0.129 l 13.5,0 c 0.116,0 0.216,-0.042 0.303,-0.129 0.086,-0.087 0.13,-0.188 0.13,-0.303 z"
     id="dp_path035" />
  <path
     style="fill:#006667;fill-rule:evenodd"
     inkscape:connector-curvature="0"
     d="m 221.512,107.3071 2.12,-8.523 c 0.013,-0.066 0.026,-0.124 0.041,-0.176 0.015,-0.053 0.024,-0.094 0.024,-0.126 0.001,-0.128 -0.045,-0.251 -0.141,-0.37 -0.095,-0.117 -0.251,-0.18 -0.464,-0.189 -0.316,0.021 -0.532,0.133 -0.65,0.333 -0.116,0.2 -0.18,0.354 -0.194,0.464 l -1.58,6.364 c -0.052,0.222 -0.179,0.482 -0.376,0.779 -0.2,0.297 -0.464,0.56 -0.788,0.788 -0.326,0.227 -0.7,0.348 -1.127,0.36 -0.473,-0.025 -0.788,-0.215 -0.947,-0.565 -0.158,-0.352 -0.23,-0.72 -0.22,-1.103 0.02,-0.683 0.16,-1.455 0.426,-2.312 0.262,-0.86 0.541,-1.671 0.828,-2.429 0.085,-0.222 0.154,-0.422 0.205,-0.6 0.048,-0.179 0.073,-0.368 0.073,-0.568 -0.009,-0.547 -0.165,-0.972 -0.47,-1.279 -0.304,-0.304 -0.694,-0.461 -1.168,-0.465 -0.502,0.017 -0.927,0.182 -1.279,0.501 -0.353,0.317 -0.637,0.689 -0.856,1.113 -0.22,0.423 -0.379,0.802 -0.48,1.135 -0.1,0.335 -0.151,0.525 -0.149,0.573 0.005,0.106 0.046,0.168 0.121,0.192 0.073,0.022 0.143,0.031 0.204,0.027 0.133,0.004 0.221,-0.016 0.267,-0.06 0.044,-0.044 0.084,-0.14 0.122,-0.288 0.055,-0.243 0.162,-0.579 0.319,-1.004 0.157,-0.425 0.373,-0.813 0.649,-1.165 0.278,-0.351 0.624,-0.536 1.039,-0.559 0.121,-0.008 0.232,0.025 0.328,0.103 0.093,0.077 0.144,0.254 0.149,0.526 -0.004,0.255 -0.052,0.539 -0.148,0.851 -0.096,0.315 -0.22,0.679 -0.373,1.097 -0.292,0.77 -0.548,1.524 -0.769,2.268 -0.223,0.743 -0.34,1.4 -0.351,1.976 0.028,0.928 0.284,1.58 0.771,1.956 0.484,0.376 1.034,0.559 1.645,0.544 0.497,-0.014 0.911,-0.112 1.239,-0.29 0.328,-0.176 0.564,-0.344 0.705,-0.499 -0.281,1.179 -0.625,2.099 -1.032,2.759 -0.407,0.661 -0.827,1.122 -1.261,1.385 -0.436,0.264 -0.836,0.389 -1.207,0.381 -0.34,-0.01 -0.609,-0.084 -0.805,-0.218 -0.195,-0.138 -0.334,-0.278 -0.415,-0.426 -0.08,-0.148 -0.119,-0.245 -0.116,-0.29 -0.003,-0.002 0.008,-0.01 0.029,-0.026 0.022,-0.013 0.071,-0.028 0.144,-0.038 0.331,-0.071 0.571,-0.214 0.715,-0.434 0.144,-0.218 0.216,-0.421 0.212,-0.609 -0.005,-0.229 -0.079,-0.403 -0.22,-0.519 -0.143,-0.117 -0.312,-0.176 -0.512,-0.177 -0.16,-0.015 -0.376,0.06 -0.647,0.225 -0.272,0.164 -0.424,0.542 -0.453,1.127 0.012,0.568 0.208,1.019 0.591,1.347 0.38,0.328 0.873,0.497 1.48,0.504 0.757,-0.015 1.461,-0.234 2.114,-0.655 0.652,-0.423 1.21,-0.963 1.671,-1.623 0.461,-0.662 0.787,-1.356 0.973,-2.082 z"
     id="dp_path036" />
  <path
     style="fill:#006667;fill-rule:evenodd"
     inkscape:connector-curvature="0"
     d="m 261.512,107.3071 2.12,-8.523 c 0.013,-0.066 0.026,-0.124 0.041,-0.176 0.015,-0.053 0.024,-0.094 0.024,-0.126 10e-4,-0.128 -0.045,-0.251 -0.141,-0.37 -0.095,-0.117 -0.251,-0.18 -0.464,-0.189 -0.316,0.021 -0.532,0.133 -0.65,0.333 -0.116,0.2 -0.18,0.354 -0.194,0.464 l -1.58,6.364 c -0.052,0.222 -0.179,0.482 -0.376,0.779 -0.2,0.297 -0.464,0.56 -0.788,0.788 -0.326,0.227 -0.7,0.348 -1.127,0.36 -0.473,-0.025 -0.788,-0.215 -0.947,-0.565 -0.158,-0.352 -0.23,-0.72 -0.22,-1.103 0.02,-0.683 0.16,-1.455 0.426,-2.312 0.262,-0.86 0.541,-1.671 0.828,-2.429 0.085,-0.222 0.154,-0.422 0.205,-0.6 0.048,-0.179 0.073,-0.368 0.073,-0.568 -0.009,-0.547 -0.165,-0.972 -0.47,-1.279 -0.304,-0.304 -0.694,-0.461 -1.168,-0.465 -0.502,0.017 -0.927,0.182 -1.279,0.501 -0.353,0.317 -0.637,0.689 -0.856,1.113 -0.22,0.423 -0.379,0.802 -0.48,1.135 -0.1,0.335 -0.151,0.525 -0.149,0.573 0.005,0.106 0.046,0.168 0.121,0.192 0.073,0.022 0.143,0.031 0.204,0.027 0.133,0.004 0.221,-0.016 0.267,-0.06 0.044,-0.044 0.084,-0.14 0.122,-0.288 0.055,-0.243 0.162,-0.579 0.319,-1.004 0.157,-0.425 0.373,-0.813 0.649,-1.165 0.278,-0.351 0.624,-0.536 1.039,-0.559 0.121,-0.008 0.232,0.025 0.328,0.103 0.093,0.077 0.144,0.254 0.149,0.526 -0.004,0.255 -0.052,0.539 -0.148,0.851 -0.096,0.315 -0.22,0.679 -0.373,1.097 -0.292,0.77 -0.548,1.524 -0.769,2.268 -0.223,0.743 -0.34,1.4 -0.351,1.976 0.028,0.928 0.284,1.58 0.771,1.956 0.484,0.376 1.034,0.559 1.645,0.544 0.497,-0.014 0.911,-0.112 1.239,-0.29 0.328,-0.176 0.564,-0.344 0.705,-0.499 -0.281,1.179 -0.625,2.099 -1.032,2.759 -0.407,0.661 -0.827,1.122 -1.261,1.385 -0.436,0.264 -0.836,0.389 -1.207,0.381 -0.34,-0.01 -0.609,-0.084 -0.805,-0.218 -0.195,-0.138 -0.334,-0.278 -0.415,-0.426 -0.08,-0.148 -0.119,-0.245 -0.116,-0.29 -0.003,-0.002 0.008,-0.01 0.029,-0.026 0.022,-0.013 0.071,-0.028 0.144,-0.038 0.331,-0.071 0.571,-0.214 0.715,-0.434 0.144,-0.218 0.216,-0.421 0.212,-0.609 -0.005,-0.229 -0.079,-0.403 -0.22,-0.519 -0.143,-0.117 -0.312,-0.176 -0.512,-0.177 -0.16,-0.015 -0.376,0.06 -0.647,0.225 -0.272,0.164 -0.424,0.542 -0.453,1.127 0.012,0.568 0.208,1.019 0.591,1.347 0.38,0.328 0.873,0.497 1.48,0.504 0.757,-0.015 1.461,-0.234 2.114,-0.655 0.652,-0.423 1.21,-0.963 1.671,-1.623 0.461,-0.662 0.787,-1.356 0.973,-2.082 z"
     id="dp_path037" />
  <path
     style="fill:#006667;fill-rule:evenodd"
     inkscape:connector-curvature="0"
     d="m 250.026,103.2871 0,-1.255 -12.941,0 0,1.255 z"
     id="dp_path038" />
  <path
     style="fill:#006667;fill-rule:evenodd"
     inkscape:connector-curvature="0"
     d="m 231.616,106.8301 -0.359,0 c -0.035,0.23 -0.079,0.473 -0.131,0.728 -0.052,0.253 -0.113,0.442 -0.185,0.564 -0.043,0.038 -0.152,0.065 -0.329,0.081 -0.176,0.017 -0.366,0.027 -0.566,0.031 -0.201,0.002 -0.36,0.004 -0.474,0.004 l -2.599,0 1.529,-1.494 c 0.748,-0.65 1.351,-1.201 1.808,-1.652 0.459,-0.452 0.792,-0.873 1,-1.265 0.208,-0.392 0.31,-0.821 0.306,-1.292 -0.016,-0.835 -0.306,-1.505 -0.866,-2.011 -0.561,-0.506 -1.292,-0.766 -2.19,-0.78 -0.547,0.01 -1.022,0.139 -1.423,0.39 -0.403,0.252 -0.715,0.576 -0.936,0.969 -0.221,0.395 -0.335,0.809 -0.336,1.245 0.008,0.264 0.071,0.452 0.187,0.568 0.117,0.114 0.237,0.184 0.358,0.21 0.122,0.024 0.195,0.034 0.218,0.028 0.137,0.006 0.292,-0.048 0.465,-0.16 0.173,-0.111 0.267,-0.312 0.283,-0.603 0,-0.195 -0.064,-0.367 -0.192,-0.515 -0.13,-0.148 -0.319,-0.226 -0.571,-0.233 -0.056,-0.001 -0.096,0 -0.12,10e-4 -0.025,0.002 -0.048,0.006 -0.068,0.014 0.175,-0.472 0.435,-0.835 0.784,-1.087 0.349,-0.253 0.737,-0.38 1.164,-0.384 0.439,0.007 0.8,0.123 1.085,0.347 0.288,0.224 0.5,0.513 0.642,0.868 0.14,0.354 0.209,0.732 0.209,1.133 -0.015,0.584 -0.168,1.151 -0.461,1.696 -0.292,0.547 -0.644,1.044 -1.052,1.496 l -2.774,3.084 c -0.076,0.069 -0.121,0.135 -0.138,0.195 -0.018,0.061 -0.023,0.173 -0.019,0.334 l 5.351,0 z"
     id="dp_path039" />
  <path
     style="fill:#006667;fill-rule:evenodd"
     inkscape:connector-curvature="0"
     d="m 269.184,109.3401 0,-0.441 -0.462,0 c -0.425,10e-4 -0.732,-0.02 -0.924,-0.061 -0.19,-0.043 -0.31,-0.115 -0.357,-0.215 -0.047,-0.101 -0.067,-0.241 -0.059,-0.416 l 0,-8.087 c 0.007,-0.168 -0.008,-0.273 -0.042,-0.318 -0.034,-0.044 -0.131,-0.063 -0.29,-0.058 -0.305,0.303 -0.63,0.519 -0.976,0.652 -0.344,0.131 -0.665,0.21 -0.96,0.239 -0.297,0.029 -0.526,0.04 -0.688,0.035 l 0,0.442 c 0.158,0.008 0.415,-0.008 0.772,-0.046 0.355,-0.038 0.728,-0.147 1.118,-0.326 l 0,7.467 c 0.006,0.172 -0.012,0.308 -0.06,0.409 -0.047,0.102 -0.167,0.175 -0.358,0.218 -0.19,0.045 -0.498,0.066 -0.924,0.065 l -0.461,0 0,0.441 c 0.176,-0.012 0.411,-0.024 0.701,-0.029 0.291,-0.007 0.586,-0.009 0.884,-0.011 0.3,-0.001 0.55,-0.002 0.751,-0.001 0.2,-10e-4 0.449,0 0.749,0.001 0.299,0.002 0.594,0.004 0.884,0.011 0.291,0.005 0.526,0.017 0.702,0.029 z"
     id="dp_path040" />
  <path
     style="fill:#0000ff;fill-rule:evenodd;stroke:#69056b;stroke-width:1.33333004"
     inkscape:connector-curvature="0"
     d="m 99.538,165.8601 60.914,0"
     id="dp_path041" />
  <path
     style="fill:none;stroke:#ce8703;stroke-width:1.33333004"
     inkscape:connector-curvature="0"
     d="M 39.977,298.4221 171.177,6.4200965"
     id="dp_path042" />
  <path
     style="fill:#0000ff;fill-rule:evenodd;stroke:#000000;stroke-width:0.66666698"
     inkscape:connector-curvature="0"
     d="m 160.453,28.058097 c 1.892,0 3.427,1.534 3.427,3.426 0,1.892 -1.535,3.427 -3.427,3.427 -1.892,0 -3.427,-1.535 -3.427,-3.427 0,-1.892 1.535,-3.426 3.427,-3.426 z"
     id="dp_path043" />
  <path
     style="fill:#0000ff;fill-rule:evenodd;stroke:#000000;stroke-width:0.66666698"
     inkscape:connector-curvature="0"
     d="m 99.538,162.4341 c 1.892,0 3.427,1.534 3.427,3.428 0,1.893 -1.535,3.428 -3.427,3.428 -1.892,0 -3.426,-1.535 -3.426,-3.428 0,-1.894 1.534,-3.428 3.426,-3.428 z"
     id="dp_path044" />
  <path
     style="fill:#0000ff;fill-rule:evenodd;stroke:#000000;stroke-width:0.66666698"
     inkscape:connector-curvature="0"
     d="m 160.453,164.4641 c 0.772,0 1.397,0.626 1.397,1.398 0,0.772 -0.625,1.397 -1.397,1.397 -0.772,0 -1.397,-0.625 -1.397,-1.397 0,-0.772 0.625,-1.398 1.397,-1.398 z"
     id="dp_path045" />
  <path
     style="fill:#026602;fill-rule:evenodd"
     inkscape:connector-curvature="0"
     id="path3093"
     d="m 90.490387,243.8771 c -0.072,-0.29 -0.166,-0.574 -0.282,-0.854 -0.116,-0.281 -0.266,-0.529 -0.454,-0.746 -0.187,-0.216 -0.407,-0.392 -0.66,-0.53 -0.252,-0.137 -0.551,-0.205 -0.898,-0.205 -0.346,0 -0.677,0.068 -0.994,0.205 -0.318,0.138 -0.622,0.314 -0.91,0.53 -0.288,0.217 -0.562,0.465 -0.822,0.746 -0.259,0.28 -0.498,0.564 -0.714,0.854 -0.649,0.85 -1.168,1.734 -1.557,2.649 -0.389,0.916 -0.7,1.841 -0.931,2.779 -0.245,0.937 -0.4,1.864 -0.465,2.778 -0.064,0.916 0.011,1.799 0.228,2.651 0.072,0.288 0.169,0.569 0.292,0.841 0.123,0.274 0.273,0.519 0.453,0.736 0.182,0.216 0.398,0.392 0.65,0.53 0.252,0.137 0.552,0.205 0.898,0.205 0.346,0 0.678,-0.068 0.995,-0.205 0.317,-0.138 0.624,-0.314 0.92,-0.53 0.295,-0.217 0.573,-0.462 0.832,-0.736 0.26,-0.272 0.497,-0.553 0.715,-0.841 0.634,-0.852 1.146,-1.735 1.536,-2.651 0.389,-0.914 0.706,-1.841 0.952,-2.778 0.23,-0.938 0.378,-1.863 0.442,-2.779 0.066,-0.915 -0.01,-1.799 -0.226,-2.649 z m -1.212,0.17 c 0.072,0.782 0.029,1.583 -0.13,2.407 -0.158,0.824 -0.338,1.663 -0.541,2.516 l -4.521,0 c 0.201,-0.853 0.433,-1.692 0.692,-2.516 0.26,-0.824 0.62,-1.625 1.082,-2.407 0.331,-0.548 0.674,-1.025 1.027,-1.429 0.353,-0.405 0.755,-0.608 1.201,-0.608 0.216,0 0.396,0.055 0.54,0.163 0.146,0.108 0.26,0.256 0.347,0.445 0.087,0.188 0.152,0.404 0.195,0.649 0.044,0.247 0.08,0.507 0.108,0.78 z m -0.844,5.59 c -0.202,0.85 -0.432,1.684 -0.692,2.497 -0.259,0.815 -0.62,1.619 -1.082,2.412 -0.317,0.547 -0.656,1.023 -1.017,1.425 -0.36,0.404 -0.757,0.607 -1.189,0.607 -0.216,0 -0.4,-0.055 -0.552,-0.163 -0.151,-0.108 -0.271,-0.256 -0.358,-0.444 -0.086,-0.186 -0.154,-0.402 -0.205,-0.648 -0.051,-0.245 -0.083,-0.504 -0.097,-0.777 -0.058,-0.793 -0.011,-1.597 0.141,-2.412 0.151,-0.813 0.328,-1.647 0.529,-2.497 z" />
</svg>
